<svg xmlns="http://www.w3.org/2000/svg" viewBox="0 0 318.37 374.8"><defs><style>.cls-1{fill:#fff;}</style></defs><title>5Fichier 2Vape</title><g id="Calque_2" data-name="Calque 2"><g id="Calque_1-2" data-name="Calque 1"><path class="cls-1" d="M176,339.84H142.44a18.1,18.1,0,0,0-18,18.05v13.05a158.85,158.85,0,0,0,69.61,0V357.89A18.1,18.1,0,0,0,176,339.84Z"/><path class="cls-1" d="M159.19,0S139.76,37.67,140,45.44s.19,22.92,19.23,23.32,20-18.14,20-18.14S182.8,40.06,159.19,0Z"/><path class="cls-1" d="M172.49,325.86v-4.59c0-.12,0-.23,0-.35V292.38a11.85,11.85,0,0,0-10.33-11.71,2.09,2.09,0,0,0,0-.25V257.25a3.15,3.15,0,0,0-3.14-3.14h-.72a3.15,3.15,0,0,0-3.14,3.14v23.17c0,.1,0,.21,0,.31a11.86,11.86,0,0,0-9.91,11.65v33.48H134.68v6.88H183v-6.88Z"/><path class="cls-1" d="M234,77.6a78.36,78.36,0,0,1-148.64-.47,159.24,159.24,0,0,0,4.79,284.49V255a19.8,19.8,0,0,1,19.74-19.74h17.86V181.17h20.87V153.06h20.63v28.11h20.6v54.11h13.62A19.79,19.79,0,0,1,223.17,255V364A159.24,159.24,0,0,0,234,77.6Z"/><polygon class="cls-1" points="162.25 208.49 162.25 187.69 182.96 187.69 182.96 229.3 172.6 229.3 162.25 208.49"/><polygon class="cls-1" points="155.38 208.69 155.38 187.88 134.67 187.88 134.67 229.49 145.03 229.49 155.38 208.69"/></g></g></svg>